solid Object01
  facet normal 0.000000e+00 -1.000000e+00 0.000000e+00
    outer loop
      vertex 2.759500e+03 3.214907e+02 1.294249e+02
      vertex 2.759500e+03 3.214907e+02 6.794248e+02
      vertex 2.735000e+03 3.214907e+02 1.294249e+02
    endloop
  endfacet
  facet normal 0.000000e+00 -1.000000e+00 -0.000000e+00
    outer loop
      vertex 2.735000e+03 3.214907e+02 1.294249e+02
      vertex 2.759500e+03 3.214907e+02 6.794248e+02
      vertex 2.735000e+03 3.214907e+02 6.794248e+02
    endloop
  endfacet
  facet normal 1.000000e+00 -0.000000e+00 0.000000e+00
    outer loop
      vertex 2.759500e+03 4.554907e+02 1.294249e+02
      vertex 2.759500e+03 4.554907e+02 6.794248e+02
      vertex 2.759500e+03 3.214907e+02 1.294249e+02
    endloop
  endfacet
  facet normal 1.000000e+00 0.000000e+00 0.000000e+00
    outer loop
      vertex 2.759500e+03 3.214907e+02 1.294249e+02
      vertex 2.759500e+03 4.554907e+02 6.794248e+02
      vertex 2.759500e+03 3.214907e+02 6.794248e+02
    endloop
  endfacet
  facet normal 0.000000e+00 1.000000e+00 0.000000e+00
    outer loop
      vertex 2.735000e+03 4.554907e+02 1.294249e+02
      vertex 2.735000e+03 4.554907e+02 6.794248e+02
      vertex 2.759500e+03 4.554907e+02 1.294249e+02
    endloop
  endfacet
  facet normal 0.000000e+00 1.000000e+00 0.000000e+00
    outer loop
      vertex 2.759500e+03 4.554907e+02 1.294249e+02
      vertex 2.735000e+03 4.554907e+02 6.794248e+02
      vertex 2.759500e+03 4.554907e+02 6.794248e+02
    endloop
  endfacet
  facet normal -1.000000e+00 -0.000000e+00 -0.000000e+00
    outer loop
      vertex 2.735000e+03 3.214907e+02 1.294249e+02
      vertex 2.735000e+03 3.214907e+02 6.794248e+02
      vertex 2.735000e+03 4.554907e+02 1.294249e+02
    endloop
  endfacet
  facet normal -1.000000e+00 0.000000e+00 0.000000e+00
    outer loop
      vertex 2.735000e+03 4.554907e+02 1.294249e+02
      vertex 2.735000e+03 3.214907e+02 6.794248e+02
      vertex 2.735000e+03 4.554907e+02 6.794248e+02
    endloop
  endfacet
  facet normal -0.000000e+00 0.000000e+00 1.000000e+00
    outer loop
      vertex 2.759500e+03 3.214907e+02 6.794248e+02
      vertex 2.759500e+03 4.554907e+02 6.794248e+02
      vertex 2.735000e+03 3.214907e+02 6.794248e+02
    endloop
  endfacet
  facet normal 0.000000e+00 0.000000e+00 1.000000e+00
    outer loop
      vertex 2.735000e+03 3.214907e+02 6.794248e+02
      vertex 2.759500e+03 4.554907e+02 6.794248e+02
      vertex 2.735000e+03 4.554907e+02 6.794248e+02
    endloop
  endfacet
  facet normal -0.000000e+00 -0.000000e+00 -1.000000e+00
    outer loop
      vertex 2.735000e+03 3.214907e+02 1.294249e+02
      vertex 2.735000e+03 4.554907e+02 1.294249e+02
      vertex 2.759500e+03 3.214907e+02 1.294249e+02
    endloop
  endfacet
  facet normal 0.000000e+00 0.000000e+00 -1.000000e+00
    outer loop
      vertex 2.759500e+03 3.214907e+02 1.294249e+02
      vertex 2.735000e+03 4.554907e+02 1.294249e+02
      vertex 2.759500e+03 4.554907e+02 1.294249e+02
    endloop
  endfacet
  facet normal 0.000000e+00 1.000000e+00 0.000000e+00
    outer loop
      vertex 2.735000e+03 -3.035094e+02 1.294249e+02
      vertex 2.735000e+03 -3.035094e+02 6.794248e+02
      vertex 2.767500e+03 -3.035094e+02 1.294249e+02
    endloop
  endfacet
  facet normal 0.000000e+00 1.000000e+00 0.000000e+00
    outer loop
      vertex 2.767500e+03 -3.035094e+02 1.294249e+02
      vertex 2.735000e+03 -3.035094e+02 6.794248e+02
      vertex 2.767500e+03 -3.035094e+02 6.794248e+02
    endloop
  endfacet
  facet normal -1.000000e+00 0.000000e+00 0.000000e+00
    outer loop
      vertex 2.735000e+03 -3.035094e+02 1.294249e+02
      vertex 2.735000e+03 -4.315094e+02 1.294249e+02
      vertex 2.735000e+03 -3.035094e+02 6.794248e+02
    endloop
  endfacet
  facet normal -1.000000e+00 0.000000e+00 0.000000e+00
    outer loop
      vertex 2.735000e+03 -3.035094e+02 6.794248e+02
      vertex 2.735000e+03 -4.315094e+02 1.294249e+02
      vertex 2.735000e+03 -4.315094e+02 6.794248e+02
    endloop
  endfacet
  facet normal -8.576369e-08 1.000000e+00 0.000000e+00
    outer loop
      vertex 2.735000e+03 -4.315094e+02 1.294249e+02
      vertex -1.535000e+03 -4.315097e+02 1.294246e+02
      vertex 2.735000e+03 -4.315094e+02 6.794248e+02
    endloop
  endfacet
  facet normal -8.576369e-08 1.000000e+00 0.000000e+00
    outer loop
      vertex 2.735000e+03 -4.315094e+02 6.794248e+02
      vertex -1.535000e+03 -4.315097e+02 1.294246e+02
      vertex -1.535000e+03 -4.315097e+02 6.794246e+02
    endloop
  endfacet
  facet normal 1.000000e+00 0.000000e+00 0.000000e+00
    outer loop
      vertex -1.535000e+03 -4.315097e+02 1.294246e+02
      vertex -1.535000e+03 -3.035097e+02 1.294246e+02
      vertex -1.535000e+03 -4.315097e+02 6.794246e+02
    endloop
  endfacet
  facet normal 1.000000e+00 0.000000e+00 0.000000e+00
    outer loop
      vertex -1.535000e+03 -4.315097e+02 6.794246e+02
      vertex -1.535000e+03 -3.035097e+02 1.294246e+02
      vertex -1.535000e+03 -3.035097e+02 6.794246e+02
    endloop
  endfacet
  facet normal -0.000000e+00 1.000000e+00 0.000000e+00
    outer loop
      vertex -1.535000e+03 -3.035097e+02 1.294246e+02
      vertex -1.567500e+03 -3.035097e+02 1.294246e+02
      vertex -1.535000e+03 -3.035097e+02 6.794246e+02
    endloop
  endfacet
  facet normal 0.000000e+00 1.000000e+00 0.000000e+00
    outer loop
      vertex -1.535000e+03 -3.035097e+02 6.794246e+02
      vertex -1.567500e+03 -3.035097e+02 1.294246e+02
      vertex -1.567500e+03 -3.035097e+02 6.794246e+02
    endloop
  endfacet
  facet normal -1.000000e+00 0.000000e+00 0.000000e+00
    outer loop
      vertex -1.567500e+03 -3.035097e+02 1.294246e+02
      vertex -1.567500e+03 -4.552622e+02 1.294246e+02
      vertex -1.567500e+03 -3.035097e+02 6.794246e+02
    endloop
  endfacet
  facet normal -1.000000e+00 0.000000e+00 0.000000e+00
    outer loop
      vertex -1.567500e+03 -3.035097e+02 6.794246e+02
      vertex -1.567500e+03 -4.552622e+02 1.294246e+02
      vertex -1.567500e+03 -4.552622e+02 6.794246e+02
    endloop
  endfacet
  facet normal -2.017789e-03 -9.999980e-01 -0.000000e+00
    outer loop
      vertex -1.567500e+03 -4.552622e+02 1.294246e+02
      vertex 2.767500e+03 -4.640094e+02 1.294249e+02
      vertex -1.567500e+03 -4.552622e+02 6.794246e+02
    endloop
  endfacet
  facet normal -2.017789e-03 -9.999980e-01 0.000000e+00
    outer loop
      vertex -1.567500e+03 -4.552622e+02 6.794246e+02
      vertex 2.767500e+03 -4.640094e+02 1.294249e+02
      vertex 2.767500e+03 -4.640094e+02 6.794248e+02
    endloop
  endfacet
  facet normal 1.000000e+00 0.000000e+00 0.000000e+00
    outer loop
      vertex 2.767500e+03 -4.640094e+02 1.294249e+02
      vertex 2.767500e+03 -3.035094e+02 1.294249e+02
      vertex 2.767500e+03 -4.640094e+02 6.794248e+02
    endloop
  endfacet
  facet normal 1.000000e+00 0.000000e+00 0.000000e+00
    outer loop
      vertex 2.767500e+03 -4.640094e+02 6.794248e+02
      vertex 2.767500e+03 -3.035094e+02 1.294249e+02
      vertex 2.767500e+03 -3.035094e+02 6.794248e+02
    endloop
  endfacet
  facet normal 0.000000e+00 -0.000000e+00 1.000000e+00
    outer loop
      vertex 2.735000e+03 -3.035094e+02 6.794248e+02
      vertex 2.735000e+03 -4.315094e+02 6.794248e+02
      vertex 2.767500e+03 -3.035094e+02 6.794248e+02
    endloop
  endfacet
  facet normal 0.000000e+00 0.000000e+00 1.000000e+00
    outer loop
      vertex 2.767500e+03 -3.035094e+02 6.794248e+02
      vertex 2.735000e+03 -4.315094e+02 6.794248e+02
      vertex 2.767500e+03 -4.640094e+02 6.794248e+02
    endloop
  endfacet
  facet normal -5.643236e-08 -5.643236e-08 1.000000e+00
    outer loop
      vertex 2.767500e+03 -4.640094e+02 6.794248e+02
      vertex 2.735000e+03 -4.315094e+02 6.794248e+02
      vertex -1.567500e+03 -4.552622e+02 6.794246e+02
    endloop
  endfacet
  facet normal -5.717581e-08 7.823205e-08 1.000000e+00
    outer loop
      vertex -1.567500e+03 -4.552622e+02 6.794246e+02
      vertex 2.735000e+03 -4.315094e+02 6.794248e+02
      vertex -1.535000e+03 -4.315097e+02 6.794246e+02
    endloop
  endfacet
  facet normal 0.000000e+00 0.000000e+00 1.000000e+00
    outer loop
      vertex -1.567500e+03 -4.552622e+02 6.794246e+02
      vertex -1.535000e+03 -4.315097e+02 6.794246e+02
      vertex -1.567500e+03 -3.035097e+02 6.794246e+02
    endloop
  endfacet
  facet normal 0.000000e+00 0.000000e+00 1.000000e+00
    outer loop
      vertex -1.567500e+03 -3.035097e+02 6.794246e+02
      vertex -1.535000e+03 -4.315097e+02 6.794246e+02
      vertex -1.535000e+03 -3.035097e+02 6.794246e+02
    endloop
  endfacet
  facet normal 0.000000e+00 0.000000e+00 -1.000000e+00
    outer loop
      vertex 2.735000e+03 -3.035094e+02 1.294249e+02
      vertex 2.767500e+03 -3.035094e+02 1.294249e+02
      vertex 2.735000e+03 -4.315094e+02 1.294249e+02
    endloop
  endfacet
  facet normal -0.000000e+00 0.000000e+00 -1.000000e+00
    outer loop
      vertex 2.735000e+03 -4.315094e+02 1.294249e+02
      vertex 2.767500e+03 -3.035094e+02 1.294249e+02
      vertex 2.767500e+03 -4.640094e+02 1.294249e+02
    endloop
  endfacet
  facet normal 7.759450e-08 7.759450e-08 -1.000000e+00
    outer loop
      vertex 2.735000e+03 -4.315094e+02 1.294249e+02
      vertex 2.767500e+03 -4.640094e+02 1.294249e+02
      vertex -1.567500e+03 -4.552622e+02 1.294246e+02
    endloop
  endfacet
  facet normal 7.861674e-08 -1.075671e-07 -1.000000e+00
    outer loop
      vertex 2.735000e+03 -4.315094e+02 1.294249e+02
      vertex -1.567500e+03 -4.552622e+02 1.294246e+02
      vertex -1.535000e+03 -4.315097e+02 1.294246e+02
    endloop
  endfacet
  facet normal 0.000000e+00 0.000000e+00 -1.000000e+00
    outer loop
      vertex -1.535000e+03 -4.315097e+02 1.294246e+02
      vertex -1.567500e+03 -4.552622e+02 1.294246e+02
      vertex -1.567500e+03 -3.035097e+02 1.294246e+02
    endloop
  endfacet
  facet normal 0.000000e+00 0.000000e+00 -1.000000e+00
    outer loop
      vertex -1.535000e+03 -4.315097e+02 1.294246e+02
      vertex -1.567500e+03 -3.035097e+02 1.294246e+02
      vertex -1.535000e+03 -3.035097e+02 1.294246e+02
    endloop
  endfacet
  facet normal 0.000000e+00 -1.000000e+00 0.000000e+00
    outer loop
      vertex -1.535000e+03 3.214903e+02 1.294246e+02
      vertex -1.535000e+03 3.214903e+02 6.794246e+02
      vertex -1.567500e+03 3.214903e+02 1.294246e+02
    endloop
  endfacet
  facet normal 0.000000e+00 -1.000000e+00 -0.000000e+00
    outer loop
      vertex -1.567500e+03 3.214903e+02 1.294246e+02
      vertex -1.535000e+03 3.214903e+02 6.794246e+02
      vertex -1.567500e+03 3.214903e+02 6.794246e+02
    endloop
  endfacet
  facet normal 1.000000e+00 -0.000000e+00 0.000000e+00
    outer loop
      vertex -1.535000e+03 4.554903e+02 1.294246e+02
      vertex -1.535000e+03 4.554903e+02 6.794246e+02
      vertex -1.535000e+03 3.214903e+02 1.294246e+02
    endloop
  endfacet
  facet normal 1.000000e+00 0.000000e+00 0.000000e+00
    outer loop
      vertex -1.535000e+03 3.214903e+02 1.294246e+02
      vertex -1.535000e+03 4.554903e+02 6.794246e+02
      vertex -1.535000e+03 3.214903e+02 6.794246e+02
    endloop
  endfacet
  facet normal 0.000000e+00 1.000000e+00 0.000000e+00
    outer loop
      vertex -1.567500e+03 4.554903e+02 1.294246e+02
      vertex -1.567500e+03 4.554903e+02 6.794246e+02
      vertex -1.535000e+03 4.554903e+02 1.294246e+02
    endloop
  endfacet
  facet normal 0.000000e+00 1.000000e+00 0.000000e+00
    outer loop
      vertex -1.535000e+03 4.554903e+02 1.294246e+02
      vertex -1.567500e+03 4.554903e+02 6.794246e+02
      vertex -1.535000e+03 4.554903e+02 6.794246e+02
    endloop
  endfacet
  facet normal -1.000000e+00 -0.000000e+00 -0.000000e+00
    outer loop
      vertex -1.567500e+03 3.214903e+02 1.294246e+02
      vertex -1.567500e+03 3.214903e+02 6.794246e+02
      vertex -1.567500e+03 4.554903e+02 1.294246e+02
    endloop
  endfacet
  facet normal -1.000000e+00 0.000000e+00 0.000000e+00
    outer loop
      vertex -1.567500e+03 4.554903e+02 1.294246e+02
      vertex -1.567500e+03 3.214903e+02 6.794246e+02
      vertex -1.567500e+03 4.554903e+02 6.794246e+02
    endloop
  endfacet
  facet normal -0.000000e+00 0.000000e+00 1.000000e+00
    outer loop
      vertex -1.535000e+03 3.214903e+02 6.794246e+02
      vertex -1.535000e+03 4.554903e+02 6.794246e+02
      vertex -1.567500e+03 3.214903e+02 6.794246e+02
    endloop
  endfacet
  facet normal 0.000000e+00 0.000000e+00 1.000000e+00
    outer loop
      vertex -1.567500e+03 3.214903e+02 6.794246e+02
      vertex -1.535000e+03 4.554903e+02 6.794246e+02
      vertex -1.567500e+03 4.554903e+02 6.794246e+02
    endloop
  endfacet
  facet normal -0.000000e+00 -0.000000e+00 -1.000000e+00
    outer loop
      vertex -1.567500e+03 3.214903e+02 1.294246e+02
      vertex -1.567500e+03 4.554903e+02 1.294246e+02
      vertex -1.535000e+03 3.214903e+02 1.294246e+02
    endloop
  endfacet
  facet normal 0.000000e+00 0.000000e+00 -1.000000e+00
    outer loop
      vertex -1.535000e+03 3.214903e+02 1.294246e+02
      vertex -1.567500e+03 4.554903e+02 1.294246e+02
      vertex -1.535000e+03 4.554903e+02 1.294246e+02
    endloop
  endfacet
  facet normal -1.040602e-07 -1.813623e-06 1.000000e+00
    outer loop
      vertex 3.932499e+03 1.170991e+03 6.794249e+02
      vertex 3.322500e+03 1.205991e+03 6.794249e+02
      vertex 2.759427e+03 1.170991e+03 6.794248e+02
    endloop
  endfacet
  facet normal 0.000000e+00 -3.487723e-06 1.000000e+00
    outer loop
      vertex 2.759427e+03 1.170991e+03 6.794248e+02
      vertex 3.322500e+03 1.205991e+03 6.794249e+02
      vertex 3.302500e+03 1.205991e+03 6.794249e+02
    endloop
  endfacet
  facet normal -2.060256e-07 -2.909522e-07 1.000000e+00
    outer loop
      vertex 2.759427e+03 1.170991e+03 6.794248e+02
      vertex 3.302500e+03 1.205991e+03 6.794249e+02
      vertex 2.710000e+03 1.205991e+03 6.794248e+02
    endloop
  endfacet
  facet normal 0.000000e+00 0.000000e+00 1.000000e+00
    outer loop
      vertex 3.932500e+03 1.835991e+03 6.794249e+02
      vertex 3.897500e+03 1.800991e+03 6.794249e+02
      vertex 3.932499e+03 1.170991e+03 6.794249e+02
    endloop
  endfacet
  facet normal 0.000000e+00 0.000000e+00 1.000000e+00
    outer loop
      vertex 3.932499e+03 1.170991e+03 6.794249e+02
      vertex 3.897500e+03 1.800991e+03 6.794249e+02
      vertex 3.897499e+03 1.205991e+03 6.794249e+02
    endloop
  endfacet
  facet normal 0.000000e+00 0.000000e+00 1.000000e+00
    outer loop
      vertex 3.932499e+03 1.170991e+03 6.794249e+02
      vertex 3.897499e+03 1.205991e+03 6.794249e+02
      vertex 3.322500e+03 1.205991e+03 6.794249e+02
    endloop
  endfacet
  facet normal -4.997248e-08 8.995039e-07 1.000000e+00
    outer loop
      vertex 1.489749e+03 1.835991e+03 6.794248e+02
      vertex 3.302500e+03 1.800991e+03 6.794249e+02
      vertex 3.932500e+03 1.835991e+03 6.794249e+02
    endloop
  endfacet
  facet normal 0.000000e+00 0.000000e+00 1.000000e+00
    outer loop
      vertex 3.932500e+03 1.835991e+03 6.794249e+02
      vertex 3.302500e+03 1.800991e+03 6.794249e+02
      vertex 3.322500e+03 1.800991e+03 6.794249e+02
    endloop
  endfacet
  facet normal 0.000000e+00 0.000000e+00 1.000000e+00
    outer loop
      vertex 3.932500e+03 1.835991e+03 6.794249e+02
      vertex 3.322500e+03 1.800991e+03 6.794249e+02
      vertex 3.897500e+03 1.800991e+03 6.794249e+02
    endloop
  endfacet
  facet normal -6.866557e-08 -6.866557e-08 1.000000e+00
    outer loop
      vertex 3.302500e+03 1.800991e+03 6.794249e+02
      vertex 1.489749e+03 1.835991e+03 6.794248e+02
      vertex 1.524749e+03 1.800991e+03 6.794248e+02
    endloop
  endfacet
  facet normal -0.000000e+00 0.000000e+00 1.000000e+00
    outer loop
      vertex 1.524749e+03 1.800991e+03 6.794248e+02
      vertex 1.489749e+03 1.835991e+03 6.794248e+02
      vertex 1.489749e+03 1.238490e+03 6.794248e+02
    endloop
  endfacet
  facet normal 0.000000e+00 -0.000000e+00 1.000000e+00
    outer loop
      vertex 1.524749e+03 1.800991e+03 6.794248e+02
      vertex 1.489749e+03 1.238490e+03 6.794248e+02
      vertex 1.524749e+03 1.248490e+03 6.794248e+02
    endloop
  endfacet
  facet normal 0.000000e+00 -0.000000e+00 1.000000e+00
    outer loop
      vertex 1.524749e+03 1.248490e+03 6.794248e+02
      vertex 1.489749e+03 1.238490e+03 6.794248e+02
      vertex 2.675000e+03 1.213491e+03 6.794248e+02
    endloop
  endfacet
  facet normal 0.000000e+00 0.000000e+00 1.000000e+00
    outer loop
      vertex 1.524749e+03 1.248490e+03 6.794248e+02
      vertex 2.675000e+03 1.213491e+03 6.794248e+02
      vertex 2.710000e+03 1.248491e+03 6.794248e+02
    endloop
  endfacet
  facet normal 0.000000e+00 0.000000e+00 1.000000e+00
    outer loop
      vertex 2.710000e+03 1.248491e+03 6.794248e+02
      vertex 2.675000e+03 1.213491e+03 6.794248e+02
      vertex 2.710000e+03 1.205991e+03 6.794248e+02
    endloop
  endfacet
  facet normal -0.000000e+00 0.000000e+00 1.000000e+00
    outer loop
      vertex 2.710000e+03 1.205991e+03 6.794248e+02
      vertex 2.675000e+03 1.213491e+03 6.794248e+02
      vertex 2.675000e+03 1.170991e+03 6.794248e+02
    endloop
  endfacet
  facet normal 0.000000e+00 -0.000000e+00 1.000000e+00
    outer loop
      vertex 2.710000e+03 1.205991e+03 6.794248e+02
      vertex 2.675000e+03 1.170991e+03 6.794248e+02
      vertex 2.735000e+03 1.170991e+03 6.794248e+02
    endloop
  endfacet
  facet normal -5.799042e-08 -2.749341e-06 1.000000e+00
    outer loop
      vertex 2.675000e+03 1.213491e+03 6.794248e+02
      vertex 1.489749e+03 1.238490e+03 6.794248e+02
      vertex -1.535000e+03 1.213490e+03 6.794246e+02
    endloop
  endfacet
  facet normal -7.985631e-08 -1.038128e-07 1.000000e+00
    outer loop
      vertex -1.535000e+03 1.213490e+03 6.794246e+02
      vertex 1.489749e+03 1.238490e+03 6.794248e+02
      vertex -1.567500e+03 1.238490e+03 6.794246e+02
    endloop
  endfacet
  facet normal -0.000000e+00 0.000000e+00 1.000000e+00
    outer loop
      vertex -1.535000e+03 1.213490e+03 6.794246e+02
      vertex -1.567500e+03 1.238490e+03 6.794246e+02
      vertex -1.567500e+03 1.080490e+03 6.794246e+02
    endloop
  endfacet
  facet normal 0.000000e+00 0.000000e+00 1.000000e+00
    outer loop
      vertex -1.567500e+03 1.080490e+03 6.794246e+02
      vertex -1.535000e+03 1.080490e+03 6.794246e+02
      vertex -1.535000e+03 1.213490e+03 6.794246e+02
    endloop
  endfacet
  facet normal 0.000000e+00 0.000000e+00 1.000000e+00
    outer loop
      vertex 2.710000e+03 1.205991e+03 6.794248e+02
      vertex 2.735000e+03 1.170991e+03 6.794248e+02
      vertex 2.759427e+03 1.170991e+03 6.794248e+02
    endloop
  endfacet
  facet normal 0.000000e+00 0.000000e+00 1.000000e+00
    outer loop
      vertex 2.759427e+03 1.170991e+03 6.794248e+02
      vertex 2.735000e+03 1.170991e+03 6.794248e+02
      vertex 2.735000e+03 1.080491e+03 6.794248e+02
    endloop
  endfacet
  facet normal 0.000000e+00 0.000000e+00 1.000000e+00
    outer loop
      vertex 2.759427e+03 1.170991e+03 6.794248e+02
      vertex 2.735000e+03 1.080491e+03 6.794248e+02
      vertex 2.759427e+03 1.080491e+03 6.794248e+02
    endloop
  endfacet
  facet normal -0.000000e+00 0.000000e+00 1.000000e+00
    outer loop
      vertex 3.322500e+03 1.205991e+03 6.794249e+02
      vertex 3.322500e+03 1.800991e+03 6.794249e+02
      vertex 3.302500e+03 1.205991e+03 6.794249e+02
    endloop
  endfacet
  facet normal 0.000000e+00 0.000000e+00 1.000000e+00
    outer loop
      vertex 3.302500e+03 1.205991e+03 6.794249e+02
      vertex 3.322500e+03 1.800991e+03 6.794249e+02
      vertex 3.302500e+03 1.800991e+03 6.794249e+02
    endloop
  endfacet
  facet normal 6.503777e-08 -1.743842e-07 -1.000000e+00
    outer loop
      vertex 2.759427e+03 1.170991e+03 1.294249e+02
      vertex 3.322500e+03 1.205991e+03 1.294250e+02
      vertex 3.932499e+03 1.170991e+03 1.294250e+02
    endloop
  endfacet
  facet normal 7.961126e-08 7.961126e-08 -1.000000e+00
    outer loop
      vertex 3.932499e+03 1.170991e+03 1.294250e+02
      vertex 3.322500e+03 1.205991e+03 1.294250e+02
      vertex 3.897499e+03 1.205991e+03 1.294250e+02
    endloop
  endfacet
  facet normal 0.000000e+00 0.000000e+00 -1.000000e+00
    outer loop
      vertex 3.932499e+03 1.170991e+03 1.294250e+02
      vertex 3.897499e+03 1.205991e+03 1.294250e+02
      vertex 3.897500e+03 1.800991e+03 1.294250e+02
    endloop
  endfacet
  facet normal 0.000000e+00 0.000000e+00 -1.000000e+00
    outer loop
      vertex 2.759427e+03 1.080491e+03 1.294249e+02
      vertex 2.735000e+03 1.170991e+03 1.294249e+02
      vertex 2.759427e+03 1.170991e+03 1.294249e+02
    endloop
  endfacet
  facet normal 0.000000e+00 -4.359654e-07 -1.000000e+00
    outer loop
      vertex 2.759427e+03 1.170991e+03 1.294249e+02
      vertex 2.735000e+03 1.170991e+03 1.294249e+02
      vertex 2.710000e+03 1.205991e+03 1.294249e+02
    endloop
  endfacet
  facet normal 7.725960e-08 -3.268583e-07 -1.000000e+00
    outer loop
      vertex 2.759427e+03 1.170991e+03 1.294249e+02
      vertex 2.710000e+03 1.205991e+03 1.294249e+02
      vertex 3.302500e+03 1.205991e+03 1.294250e+02
    endloop
  endfacet
  facet normal 0.000000e+00 0.000000e+00 -1.000000e+00
    outer loop
      vertex 2.759427e+03 1.080491e+03 1.294249e+02
      vertex 2.735000e+03 1.080491e+03 1.294249e+02
      vertex 2.735000e+03 1.170991e+03 1.294249e+02
    endloop
  endfacet
  facet normal 2.543132e-07 -2.543132e-07 -1.000000e+00
    outer loop
      vertex 2.735000e+03 1.170991e+03 1.294249e+02
      vertex 2.675000e+03 1.170991e+03 1.294249e+02
      vertex 2.710000e+03 1.205991e+03 1.294249e+02
    endloop
  endfacet
  facet normal 0.000000e+00 0.000000e+00 -1.000000e+00
    outer loop
      vertex 2.710000e+03 1.205991e+03 1.294249e+02
      vertex 2.675000e+03 1.170991e+03 1.294249e+02
      vertex 2.675000e+03 1.213491e+03 1.294249e+02
    endloop
  endfacet
  facet normal 0.000000e+00 0.000000e+00 -1.000000e+00
    outer loop
      vertex 2.710000e+03 1.205991e+03 1.294249e+02
      vertex 2.675000e+03 1.213491e+03 1.294249e+02
      vertex 2.710000e+03 1.248491e+03 1.294249e+02
    endloop
  endfacet
  facet normal 6.436947e-08 -6.436947e-08 -1.000000e+00
    outer loop
      vertex 2.710000e+03 1.248491e+03 1.294249e+02
      vertex 2.675000e+03 1.213491e+03 1.294249e+02
      vertex 1.524749e+03 1.248490e+03 1.294248e+02
    endloop
  endfacet
  facet normal 1.019049e-07 1.169212e-06 -1.000000e+00
    outer loop
      vertex 1.524749e+03 1.248490e+03 1.294248e+02
      vertex 2.675000e+03 1.213491e+03 1.294249e+02
      vertex 1.489749e+03 1.238490e+03 1.294248e+02
    endloop
  endfacet
  facet normal 4.359654e-07 9.632291e-14 -1.000000e+00
    outer loop
      vertex 1.524749e+03 1.248490e+03 1.294248e+02
      vertex 1.489749e+03 1.238490e+03 1.294248e+02
      vertex 1.524749e+03 1.800991e+03 1.294248e+02
    endloop
  endfacet
  facet normal 4.359655e-07 8.906849e-14 -1.000000e+00
    outer loop
      vertex 1.524749e+03 1.800991e+03 1.294248e+02
      vertex 1.489749e+03 1.238490e+03 1.294248e+02
      vertex 1.489749e+03 1.835991e+03 1.294248e+02
    endloop
  endfacet
  facet normal 6.866557e-08 -3.672998e-07 -1.000000e+00
    outer loop
      vertex 1.524749e+03 1.800991e+03 1.294248e+02
      vertex 1.489749e+03 1.835991e+03 1.294248e+02
      vertex 3.302500e+03 1.800991e+03 1.294250e+02
    endloop
  endfacet
  facet normal 7.495871e-08 -4.135958e-08 -1.000000e+00
    outer loop
      vertex 3.302500e+03 1.800991e+03 1.294250e+02
      vertex 1.489749e+03 1.835991e+03 1.294248e+02
      vertex 3.932500e+03 1.835991e+03 1.294250e+02
    endloop
  endfacet
  facet normal 0.000000e+00 1.307896e-06 -1.000000e+00
    outer loop
      vertex 3.302500e+03 1.800991e+03 1.294250e+02
      vertex 3.932500e+03 1.835991e+03 1.294250e+02
      vertex 3.322500e+03 1.800991e+03 1.294250e+02
    endloop
  endfacet
  facet normal 7.961118e-08 -7.961173e-08 -1.000000e+00
    outer loop
      vertex 3.322500e+03 1.800991e+03 1.294250e+02
      vertex 3.932500e+03 1.835991e+03 1.294250e+02
      vertex 3.897500e+03 1.800991e+03 1.294250e+02
    endloop
  endfacet
  facet normal -0.000000e+00 0.000000e+00 -1.000000e+00
    outer loop
      vertex 3.897500e+03 1.800991e+03 1.294250e+02
      vertex 3.932500e+03 1.835991e+03 1.294250e+02
      vertex 3.932499e+03 1.170991e+03 1.294250e+02
    endloop
  endfacet
  facet normal 7.611275e-08 -5.360232e-08 -1.000000e+00
    outer loop
      vertex 2.675000e+03 1.213491e+03 1.294249e+02
      vertex -1.535000e+03 1.213490e+03 1.294246e+02
      vertex 1.489749e+03 1.238490e+03 1.294248e+02
    endloop
  endfacet
  facet normal 7.486530e-08 9.732489e-08 -1.000000e+00
    outer loop
      vertex 1.489749e+03 1.238490e+03 1.294248e+02
      vertex -1.535000e+03 1.213490e+03 1.294246e+02
      vertex -1.567500e+03 1.238490e+03 1.294246e+02
    endloop
  endfacet
  facet normal 0.000000e+00 0.000000e+00 -1.000000e+00
    outer loop
      vertex -1.567500e+03 1.238490e+03 1.294246e+02
      vertex -1.535000e+03 1.213490e+03 1.294246e+02
      vertex -1.567500e+03 1.080490e+03 1.294246e+02
    endloop
  endfacet
  facet normal -0.000000e+00 0.000000e+00 -1.000000e+00
    outer loop
      vertex -1.567500e+03 1.080490e+03 1.294246e+02
      vertex -1.535000e+03 1.213490e+03 1.294246e+02
      vertex -1.535000e+03 1.080490e+03 1.294246e+02
    endloop
  endfacet
  facet normal 0.000000e+00 8.719308e-07 -1.000000e+00
    outer loop
      vertex 2.759427e+03 1.170991e+03 1.294249e+02
      vertex 3.302500e+03 1.205991e+03 1.294250e+02
      vertex 3.322500e+03 1.205991e+03 1.294250e+02
    endloop
  endfacet
  facet normal 0.000000e+00 0.000000e+00 -1.000000e+00
    outer loop
      vertex 3.322500e+03 1.205991e+03 1.294250e+02
      vertex 3.302500e+03 1.205991e+03 1.294250e+02
      vertex 3.302500e+03 1.800991e+03 1.294250e+02
    endloop
  endfacet
  facet normal 0.000000e+00 0.000000e+00 -1.000000e+00
    outer loop
      vertex 3.322500e+03 1.205991e+03 1.294250e+02
      vertex 3.302500e+03 1.800991e+03 1.294250e+02
      vertex 3.322500e+03 1.800991e+03 1.294250e+02
    endloop
  endfacet
  facet normal 1.040604e-07 -1.000000e+00 0.000000e+00
    outer loop
      vertex 2.759427e+03 1.170991e+03 1.294249e+02
      vertex 3.932499e+03 1.170991e+03 1.294250e+02
      vertex 2.759427e+03 1.170991e+03 6.794248e+02
    endloop
  endfacet
  facet normal 1.040604e-07 -1.000000e+00 0.000000e+00
    outer loop
      vertex 2.759427e+03 1.170991e+03 6.794248e+02
      vertex 3.932499e+03 1.170991e+03 1.294250e+02
      vertex 3.932499e+03 1.170991e+03 6.794249e+02
    endloop
  endfacet
  facet normal 1.000000e+00 -1.468515e-06 0.000000e+00
    outer loop
      vertex 3.932499e+03 1.170991e+03 1.294250e+02
      vertex 3.932500e+03 1.835991e+03 1.294250e+02
      vertex 3.932499e+03 1.170991e+03 6.794249e+02
    endloop
  endfacet
  facet normal 1.000000e+00 -1.468515e-06 0.000000e+00
    outer loop
      vertex 3.932499e+03 1.170991e+03 6.794249e+02
      vertex 3.932500e+03 1.835991e+03 1.294250e+02
      vertex 3.932500e+03 1.835991e+03 6.794249e+02
    endloop
  endfacet
  facet normal -0.000000e+00 1.000000e+00 0.000000e+00
    outer loop
      vertex 3.932500e+03 1.835991e+03 1.294250e+02
      vertex 1.489749e+03 1.835991e+03 1.294248e+02
      vertex 3.932500e+03 1.835991e+03 6.794249e+02
    endloop
  endfacet
  facet normal 0.000000e+00 1.000000e+00 0.000000e+00
    outer loop
      vertex 3.932500e+03 1.835991e+03 6.794249e+02
      vertex 1.489749e+03 1.835991e+03 1.294248e+02
      vertex 1.489749e+03 1.835991e+03 6.794248e+02
    endloop
  endfacet
  facet normal -1.000000e+00 -2.043017e-07 -0.000000e+00
    outer loop
      vertex 1.489749e+03 1.238490e+03 1.294248e+02
      vertex 1.489749e+03 1.238490e+03 6.794248e+02
      vertex 1.489749e+03 1.835991e+03 1.294248e+02
    endloop
  endfacet
  facet normal -1.000000e+00 -2.043017e-07 -0.000000e+00
    outer loop
      vertex 1.489749e+03 1.835991e+03 1.294248e+02
      vertex 1.489749e+03 1.238490e+03 6.794248e+02
      vertex 1.489749e+03 1.835991e+03 6.794248e+02
    endloop
  endfacet
  facet normal -7.985632e-08 1.000000e+00 0.000000e+00
    outer loop
      vertex -1.567500e+03 1.238490e+03 1.294246e+02
      vertex -1.567500e+03 1.238490e+03 6.794246e+02
      vertex 1.489749e+03 1.238490e+03 1.294248e+02
    endloop
  endfacet
  facet normal -7.985632e-08 1.000000e+00 0.000000e+00
    outer loop
      vertex 1.489749e+03 1.238490e+03 1.294248e+02
      vertex -1.567500e+03 1.238490e+03 6.794246e+02
      vertex 1.489749e+03 1.238490e+03 6.794248e+02
    endloop
  endfacet
  facet normal -1.000000e+00 -0.000000e+00 -0.000000e+00
    outer loop
      vertex -1.567500e+03 1.080490e+03 1.294246e+02
      vertex -1.567500e+03 1.080490e+03 6.794246e+02
      vertex -1.567500e+03 1.238490e+03 1.294246e+02
    endloop
  endfacet
  facet normal -1.000000e+00 0.000000e+00 0.000000e+00
    outer loop
      vertex -1.567500e+03 1.238490e+03 1.294246e+02
      vertex -1.567500e+03 1.080490e+03 6.794246e+02
      vertex -1.567500e+03 1.238490e+03 6.794246e+02
    endloop
  endfacet
  facet normal 0.000000e+00 -1.000000e+00 0.000000e+00
    outer loop
      vertex -1.535000e+03 1.080490e+03 1.294246e+02
      vertex -1.535000e+03 1.080490e+03 6.794246e+02
      vertex -1.567500e+03 1.080490e+03 1.294246e+02
    endloop
  endfacet
  facet normal 0.000000e+00 -1.000000e+00 -0.000000e+00
    outer loop
      vertex -1.567500e+03 1.080490e+03 1.294246e+02
      vertex -1.535000e+03 1.080490e+03 6.794246e+02
      vertex -1.567500e+03 1.080490e+03 6.794246e+02
    endloop
  endfacet
  facet normal 1.000000e+00 -0.000000e+00 0.000000e+00
    outer loop
      vertex -1.535000e+03 1.213490e+03 1.294246e+02
      vertex -1.535000e+03 1.213490e+03 6.794246e+02
      vertex -1.535000e+03 1.080490e+03 1.294246e+02
    endloop
  endfacet
  facet normal 1.000000e+00 0.000000e+00 0.000000e+00
    outer loop
      vertex -1.535000e+03 1.080490e+03 1.294246e+02
      vertex -1.535000e+03 1.213490e+03 6.794246e+02
      vertex -1.535000e+03 1.080490e+03 6.794246e+02
    endloop
  endfacet
  facet normal 8.698599e-08 -1.000000e+00 0.000000e+00
    outer loop
      vertex 2.675000e+03 1.213491e+03 1.294249e+02
      vertex 2.675000e+03 1.213491e+03 6.794248e+02
      vertex -1.535000e+03 1.213490e+03 1.294246e+02
    endloop
  endfacet
  facet normal 8.698599e-08 -1.000000e+00 0.000000e+00
    outer loop
      vertex -1.535000e+03 1.213490e+03 1.294246e+02
      vertex 2.675000e+03 1.213491e+03 6.794248e+02
      vertex -1.535000e+03 1.213490e+03 6.794246e+02
    endloop
  endfacet
  facet normal -1.000000e+00 -0.000000e+00 -0.000000e+00
    outer loop
      vertex 2.675000e+03 1.170991e+03 1.294249e+02
      vertex 2.675000e+03 1.170991e+03 6.794248e+02
      vertex 2.675000e+03 1.213491e+03 1.294249e+02
    endloop
  endfacet
  facet normal -1.000000e+00 0.000000e+00 0.000000e+00
    outer loop
      vertex 2.675000e+03 1.213491e+03 1.294249e+02
      vertex 2.675000e+03 1.170991e+03 6.794248e+02
      vertex 2.675000e+03 1.213491e+03 6.794248e+02
    endloop
  endfacet
  facet normal 0.000000e+00 -1.000000e+00 0.000000e+00
    outer loop
      vertex 2.735000e+03 1.170991e+03 1.294249e+02
      vertex 2.735000e+03 1.170991e+03 6.794248e+02
      vertex 2.675000e+03 1.170991e+03 1.294249e+02
    endloop
  endfacet
  facet normal 0.000000e+00 -1.000000e+00 -0.000000e+00
    outer loop
      vertex 2.675000e+03 1.170991e+03 1.294249e+02
      vertex 2.735000e+03 1.170991e+03 6.794248e+02
      vertex 2.675000e+03 1.170991e+03 6.794248e+02
    endloop
  endfacet
  facet normal -1.000000e+00 -0.000000e+00 -0.000000e+00
    outer loop
      vertex 2.735000e+03 1.080491e+03 1.294249e+02
      vertex 2.735000e+03 1.080491e+03 6.794248e+02
      vertex 2.735000e+03 1.170991e+03 1.294249e+02
    endloop
  endfacet
  facet normal -1.000000e+00 0.000000e+00 0.000000e+00
    outer loop
      vertex 2.735000e+03 1.170991e+03 1.294249e+02
      vertex 2.735000e+03 1.080491e+03 6.794248e+02
      vertex 2.735000e+03 1.170991e+03 6.794248e+02
    endloop
  endfacet
  facet normal 0.000000e+00 -1.000000e+00 0.000000e+00
    outer loop
      vertex 2.759427e+03 1.080491e+03 1.294249e+02
      vertex 2.759427e+03 1.080491e+03 6.794248e+02
      vertex 2.735000e+03 1.080491e+03 1.294249e+02
    endloop
  endfacet
  facet normal 0.000000e+00 -1.000000e+00 -0.000000e+00
    outer loop
      vertex 2.735000e+03 1.080491e+03 1.294249e+02
      vertex 2.759427e+03 1.080491e+03 6.794248e+02
      vertex 2.735000e+03 1.080491e+03 6.794248e+02
    endloop
  endfacet
  facet normal 1.000000e+00 -0.000000e+00 0.000000e+00
    outer loop
      vertex 2.759427e+03 1.170991e+03 1.294249e+02
      vertex 2.759427e+03 1.170991e+03 6.794248e+02
      vertex 2.759427e+03 1.080491e+03 1.294249e+02
    endloop
  endfacet
  facet normal 1.000000e+00 0.000000e+00 0.000000e+00
    outer loop
      vertex 2.759427e+03 1.080491e+03 1.294249e+02
      vertex 2.759427e+03 1.170991e+03 6.794248e+02
      vertex 2.759427e+03 1.080491e+03 6.794248e+02
    endloop
  endfacet
  facet normal 0.000000e+00 1.000000e+00 0.000000e+00
    outer loop
      vertex 2.710000e+03 1.205991e+03 1.294249e+02
      vertex 3.282124e+03 1.205991e+03 5.935888e+02
      vertex 3.302500e+03 1.205991e+03 1.294250e+02
    endloop
  endfacet
  facet normal 0.000000e+00 1.000000e+00 0.000000e+00
    outer loop
      vertex 3.302500e+03 1.205991e+03 1.294250e+02
      vertex 3.282124e+03 1.205991e+03 5.935888e+02
      vertex 3.284148e+03 1.205991e+03 5.928518e+02
    endloop
  endfacet
  facet normal 0.000000e+00 1.000000e+00 0.000000e+00
    outer loop
      vertex 3.302500e+03 1.205991e+03 1.294250e+02
      vertex 3.284148e+03 1.205991e+03 5.928518e+02
      vertex 3.286173e+03 1.205991e+03 5.935888e+02
    endloop
  endfacet
  facet normal 0.000000e+00 1.000000e+00 0.000000e+00
    outer loop
      vertex 2.710000e+03 1.205991e+03 1.294249e+02
      vertex 2.710000e+03 1.205991e+03 6.794248e+02
      vertex 3.282124e+03 1.205991e+03 5.935888e+02
    endloop
  endfacet
  facet normal 0.000000e+00 1.000000e+00 0.000000e+00
    outer loop
      vertex 3.282124e+03 1.205991e+03 5.935888e+02
      vertex 2.710000e+03 1.205991e+03 6.794248e+02
      vertex 3.281046e+03 1.205991e+03 5.954548e+02
    endloop
  endfacet
  facet normal 0.000000e+00 1.000000e+00 0.000000e+00
    outer loop
      vertex 3.281046e+03 1.205991e+03 5.954548e+02
      vertex 2.710000e+03 1.205991e+03 6.794248e+02
      vertex 3.281421e+03 1.205991e+03 5.975768e+02
    endloop
  endfacet
  facet normal 0.000000e+00 1.000000e+00 0.000000e+00
    outer loop
      vertex 3.281421e+03 1.205991e+03 5.975768e+02
      vertex 2.710000e+03 1.205991e+03 6.794248e+02
      vertex 3.302500e+03 1.205991e+03 6.794249e+02
    endloop
  endfacet
  facet normal 0.000000e+00 1.000000e+00 0.000000e+00
    outer loop
      vertex 3.281421e+03 1.205991e+03 5.975768e+02
      vertex 3.302500e+03 1.205991e+03 6.794249e+02
      vertex 3.283071e+03 1.205991e+03 5.989619e+02
    endloop
  endfacet
  facet normal 0.000000e+00 1.000000e+00 0.000000e+00
    outer loop
      vertex 3.283071e+03 1.205991e+03 5.989619e+02
      vertex 3.302500e+03 1.205991e+03 6.794249e+02
      vertex 3.285226e+03 1.205991e+03 5.989619e+02
    endloop
  endfacet
  facet normal 0.000000e+00 1.000000e+00 0.000000e+00
    outer loop
      vertex 3.285226e+03 1.205991e+03 5.989619e+02
      vertex 3.302500e+03 1.205991e+03 6.794249e+02
      vertex 3.286876e+03 1.205991e+03 5.975768e+02
    endloop
  endfacet
  facet normal 0.000000e+00 1.000000e+00 0.000000e+00
    outer loop
      vertex 3.286876e+03 1.205991e+03 5.975768e+02
      vertex 3.302500e+03 1.205991e+03 6.794249e+02
      vertex 3.287251e+03 1.205991e+03 5.954548e+02
    endloop
  endfacet
  facet normal 0.000000e+00 1.000000e+00 0.000000e+00
    outer loop
      vertex 3.287251e+03 1.205991e+03 5.954548e+02
      vertex 3.302500e+03 1.205991e+03 6.794249e+02
      vertex 3.302500e+03 1.205991e+03 1.294250e+02
    endloop
  endfacet
  facet normal 0.000000e+00 1.000000e+00 -0.000000e+00
    outer loop
      vertex 3.287251e+03 1.205991e+03 5.954548e+02
      vertex 3.302500e+03 1.205991e+03 1.294250e+02
      vertex 3.286173e+03 1.205991e+03 5.935888e+02
    endloop
  endfacet
  facet normal -1.000000e+00 -0.000000e+00 -0.000000e+00
    outer loop
      vertex 3.302500e+03 1.205991e+03 1.294250e+02
      vertex 3.302500e+03 1.205991e+03 6.794249e+02
      vertex 3.302500e+03 1.800991e+03 1.294250e+02
    endloop
  endfacet
  facet normal -1.000000e+00 0.000000e+00 0.000000e+00
    outer loop
      vertex 3.302500e+03 1.800991e+03 1.294250e+02
      vertex 3.302500e+03 1.205991e+03 6.794249e+02
      vertex 3.302500e+03 1.800991e+03 6.794249e+02
    endloop
  endfacet
  facet normal 0.000000e+00 -1.000000e+00 0.000000e+00
    outer loop
      vertex 3.302500e+03 1.800991e+03 1.294250e+02
      vertex 3.302500e+03 1.800991e+03 6.794249e+02
      vertex 1.524749e+03 1.800991e+03 1.294248e+02
    endloop
  endfacet
  facet normal 0.000000e+00 -1.000000e+00 -0.000000e+00
    outer loop
      vertex 1.524749e+03 1.800991e+03 1.294248e+02
      vertex 3.302500e+03 1.800991e+03 6.794249e+02
      vertex 1.524749e+03 1.800991e+03 6.794248e+02
    endloop
  endfacet
  facet normal 1.000000e+00 2.209417e-07 0.000000e+00
    outer loop
      vertex 1.524749e+03 1.800991e+03 1.294248e+02
      vertex 1.524749e+03 1.800991e+03 6.794248e+02
      vertex 1.524749e+03 1.248490e+03 1.294248e+02
    endloop
  endfacet
  facet normal 1.000000e+00 2.209417e-07 0.000000e+00
    outer loop
      vertex 1.524749e+03 1.248490e+03 1.294248e+02
      vertex 1.524749e+03 1.800991e+03 6.794248e+02
      vertex 1.524749e+03 1.248490e+03 6.794248e+02
    endloop
  endfacet
  facet normal -1.029911e-07 1.000000e+00 0.000000e+00
    outer loop
      vertex 1.524749e+03 1.248490e+03 1.294248e+02
      vertex 1.524749e+03 1.248490e+03 6.794248e+02
      vertex 2.710000e+03 1.248491e+03 1.294249e+02
    endloop
  endfacet
  facet normal -1.029911e-07 1.000000e+00 0.000000e+00
    outer loop
      vertex 2.710000e+03 1.248491e+03 1.294249e+02
      vertex 1.524749e+03 1.248490e+03 6.794248e+02
      vertex 2.710000e+03 1.248491e+03 6.794248e+02
    endloop
  endfacet
  facet normal 1.000000e+00 -0.000000e+00 0.000000e+00
    outer loop
      vertex 2.710000e+03 1.248491e+03 1.294249e+02
      vertex 2.710000e+03 1.248491e+03 6.794248e+02
      vertex 2.710000e+03 1.205991e+03 1.294249e+02
    endloop
  endfacet
  facet normal 1.000000e+00 0.000000e+00 0.000000e+00
    outer loop
      vertex 2.710000e+03 1.205991e+03 1.294249e+02
      vertex 2.710000e+03 1.248491e+03 6.794248e+02
      vertex 2.710000e+03 1.205991e+03 6.794248e+02
    endloop
  endfacet
  facet normal -2.122967e-07 1.000000e+00 0.000000e+00
    outer loop
      vertex 3.322500e+03 1.205991e+03 1.294250e+02
      vertex 3.322500e+03 1.205991e+03 6.794249e+02
      vertex 3.897499e+03 1.205991e+03 1.294250e+02
    endloop
  endfacet
  facet normal -2.122967e-07 1.000000e+00 0.000000e+00
    outer loop
      vertex 3.897499e+03 1.205991e+03 1.294250e+02
      vertex 3.322500e+03 1.205991e+03 6.794249e+02
      vertex 3.897499e+03 1.205991e+03 6.794249e+02
    endloop
  endfacet
  facet normal -1.000000e+00 1.230961e-06 0.000000e+00
    outer loop
      vertex 3.897500e+03 1.800991e+03 1.294250e+02
      vertex 3.897499e+03 1.205991e+03 1.294250e+02
      vertex 3.897500e+03 1.800991e+03 6.794249e+02
    endloop
  endfacet
  facet normal -1.000000e+00 1.230961e-06 0.000000e+00
    outer loop
      vertex 3.897500e+03 1.800991e+03 6.794249e+02
      vertex 3.897499e+03 1.205991e+03 1.294250e+02
      vertex 3.897499e+03 1.205991e+03 6.794249e+02
    endloop
  endfacet
  facet normal 0.000000e+00 -1.000000e+00 0.000000e+00
    outer loop
      vertex 3.897500e+03 1.800991e+03 1.294250e+02
      vertex 3.897500e+03 1.800991e+03 6.794249e+02
      vertex 3.322500e+03 1.800991e+03 1.294250e+02
    endloop
  endfacet
  facet normal 0.000000e+00 -1.000000e+00 -0.000000e+00
    outer loop
      vertex 3.322500e+03 1.800991e+03 1.294250e+02
      vertex 3.897500e+03 1.800991e+03 6.794249e+02
      vertex 3.322500e+03 1.800991e+03 6.794249e+02
    endloop
  endfacet
  facet normal 1.000000e+00 -0.000000e+00 0.000000e+00
    outer loop
      vertex 3.322500e+03 1.800991e+03 1.294250e+02
      vertex 3.322500e+03 1.800991e+03 6.794249e+02
      vertex 3.322500e+03 1.205991e+03 1.294250e+02
    endloop
  endfacet
  facet normal 1.000000e+00 0.000000e+00 0.000000e+00
    outer loop
      vertex 3.322500e+03 1.205991e+03 1.294250e+02
      vertex 3.322500e+03 1.800991e+03 6.794249e+02
      vertex 3.322500e+03 1.205991e+03 6.794249e+02
    endloop
  endfacet
  facet normal 3.420182e-01 0.000000e+00 -9.396933e-01
    outer loop
      vertex 3.286173e+03 1.206991e+03 5.935888e+02
      vertex 3.286173e+03 1.205991e+03 5.935888e+02
      vertex 3.284148e+03 1.206991e+03 5.928518e+02
    endloop
  endfacet
  facet normal 3.420182e-01 0.000000e+00 -9.396933e-01
    outer loop
      vertex 3.284148e+03 1.206991e+03 5.928518e+02
      vertex 3.286173e+03 1.205991e+03 5.935888e+02
      vertex 3.284148e+03 1.205991e+03 5.928518e+02
    endloop
  endfacet
  facet normal -3.420546e-01 0.000000e+00 -9.396800e-01
    outer loop
      vertex 3.284148e+03 1.206991e+03 5.928518e+02
      vertex 3.284148e+03 1.205991e+03 5.928518e+02
      vertex 3.282124e+03 1.206991e+03 5.935888e+02
    endloop
  endfacet
  facet normal -3.420546e-01 0.000000e+00 -9.396800e-01
    outer loop
      vertex 3.282124e+03 1.206991e+03 5.935888e+02
      vertex 3.284148e+03 1.205991e+03 5.928518e+02
      vertex 3.282124e+03 1.205991e+03 5.935888e+02
    endloop
  endfacet
  facet normal -8.660172e-01 0.000000e+00 -5.000142e-01
    outer loop
      vertex 3.282124e+03 1.206991e+03 5.935888e+02
      vertex 3.282124e+03 1.205991e+03 5.935888e+02
      vertex 3.281046e+03 1.206991e+03 5.954548e+02
    endloop
  endfacet
  facet normal -8.660172e-01 0.000000e+00 -5.000142e-01
    outer loop
      vertex 3.281046e+03 1.206991e+03 5.954548e+02
      vertex 3.282124e+03 1.205991e+03 5.935888e+02
      vertex 3.281046e+03 1.205991e+03 5.954548e+02
    endloop
  endfacet
  facet normal -9.847998e-01 0.000000e+00 1.736932e-01
    outer loop
      vertex 3.281046e+03 1.206991e+03 5.954548e+02
      vertex 3.281046e+03 1.205991e+03 5.954548e+02
      vertex 3.281421e+03 1.206991e+03 5.975768e+02
    endloop
  endfacet
  facet normal -9.847998e-01 0.000000e+00 1.736932e-01
    outer loop
      vertex 3.281421e+03 1.206991e+03 5.975768e+02
      vertex 3.281046e+03 1.205991e+03 5.954548e+02
      vertex 3.281421e+03 1.205991e+03 5.975768e+02
    endloop
  endfacet
  facet normal -6.427774e-01 0.000000e+00 7.660530e-01
    outer loop
      vertex 3.281421e+03 1.206991e+03 5.975768e+02
      vertex 3.281421e+03 1.205991e+03 5.975768e+02
      vertex 3.283071e+03 1.206991e+03 5.989619e+02
    endloop
  endfacet
  facet normal -6.427774e-01 0.000000e+00 7.660530e-01
    outer loop
      vertex 3.283071e+03 1.206991e+03 5.989619e+02
      vertex 3.281421e+03 1.205991e+03 5.975768e+02
      vertex 3.283071e+03 1.205991e+03 5.989619e+02
    endloop
  endfacet
  facet normal 0.000000e+00 -0.000000e+00 1.000000e+00
    outer loop
      vertex 3.283071e+03 1.206991e+03 5.989619e+02
      vertex 3.283071e+03 1.205991e+03 5.989619e+02
      vertex 3.285226e+03 1.206991e+03 5.989619e+02
    endloop
  endfacet
  facet normal 0.000000e+00 0.000000e+00 1.000000e+00
    outer loop
      vertex 3.285226e+03 1.206991e+03 5.989619e+02
      vertex 3.283071e+03 1.205991e+03 5.989619e+02
      vertex 3.285226e+03 1.205991e+03 5.989619e+02
    endloop
  endfacet
  facet normal 6.427774e-01 -0.000000e+00 7.660530e-01
    outer loop
      vertex 3.285226e+03 1.206991e+03 5.989619e+02
      vertex 3.285226e+03 1.205991e+03 5.989619e+02
      vertex 3.286876e+03 1.206991e+03 5.975768e+02
    endloop
  endfacet
  facet normal 6.427774e-01 -0.000000e+00 7.660530e-01
    outer loop
      vertex 3.286876e+03 1.206991e+03 5.975768e+02
      vertex 3.285226e+03 1.205991e+03 5.989619e+02
      vertex 3.286876e+03 1.205991e+03 5.975768e+02
    endloop
  endfacet
  facet normal 9.847998e-01 -0.000000e+00 1.736932e-01
    outer loop
      vertex 3.286876e+03 1.206991e+03 5.975768e+02
      vertex 3.286876e+03 1.205991e+03 5.975768e+02
      vertex 3.287251e+03 1.206991e+03 5.954548e+02
    endloop
  endfacet
  facet normal 9.847998e-01 -0.000000e+00 1.736932e-01
    outer loop
      vertex 3.287251e+03 1.206991e+03 5.954548e+02
      vertex 3.286876e+03 1.205991e+03 5.975768e+02
      vertex 3.287251e+03 1.205991e+03 5.954548e+02
    endloop
  endfacet
  facet normal 8.660172e-01 0.000000e+00 -5.000142e-01
    outer loop
      vertex 3.287251e+03 1.206991e+03 5.954548e+02
      vertex 3.287251e+03 1.205991e+03 5.954548e+02
      vertex 3.286173e+03 1.206991e+03 5.935888e+02
    endloop
  endfacet
  facet normal 8.660172e-01 0.000000e+00 -5.000142e-01
    outer loop
      vertex 3.286173e+03 1.206991e+03 5.935888e+02
      vertex 3.287251e+03 1.205991e+03 5.954548e+02
      vertex 3.286173e+03 1.205991e+03 5.935888e+02
    endloop
  endfacet
  facet normal 0.000000e+00 1.000000e+00 0.000000e+00
    outer loop
      vertex 3.284148e+03 1.206991e+03 5.928518e+02
      vertex 3.282124e+03 1.206991e+03 5.935888e+02
      vertex 3.286173e+03 1.206991e+03 5.935888e+02
    endloop
  endfacet
  facet normal -0.000000e+00 1.000000e+00 0.000000e+00
    outer loop
      vertex 3.286173e+03 1.206991e+03 5.935888e+02
      vertex 3.282124e+03 1.206991e+03 5.935888e+02
      vertex 3.287251e+03 1.206991e+03 5.954548e+02
    endloop
  endfacet
  facet normal 0.000000e+00 1.000000e+00 0.000000e+00
    outer loop
      vertex 3.287251e+03 1.206991e+03 5.954548e+02
      vertex 3.282124e+03 1.206991e+03 5.935888e+02
      vertex 3.281046e+03 1.206991e+03 5.954548e+02
    endloop
  endfacet
  facet normal -0.000000e+00 1.000000e+00 0.000000e+00
    outer loop
      vertex 3.287251e+03 1.206991e+03 5.954548e+02
      vertex 3.281046e+03 1.206991e+03 5.954548e+02
      vertex 3.286876e+03 1.206991e+03 5.975768e+02
    endloop
  endfacet
  facet normal 0.000000e+00 1.000000e+00 0.000000e+00
    outer loop
      vertex 3.286876e+03 1.206991e+03 5.975768e+02
      vertex 3.281046e+03 1.206991e+03 5.954548e+02
      vertex 3.281421e+03 1.206991e+03 5.975768e+02
    endloop
  endfacet
  facet normal -0.000000e+00 1.000000e+00 0.000000e+00
    outer loop
      vertex 3.286876e+03 1.206991e+03 5.975768e+02
      vertex 3.281421e+03 1.206991e+03 5.975768e+02
      vertex 3.285226e+03 1.206991e+03 5.989619e+02
    endloop
  endfacet
  facet normal 0.000000e+00 1.000000e+00 0.000000e+00
    outer loop
      vertex 3.285226e+03 1.206991e+03 5.989619e+02
      vertex 3.281421e+03 1.206991e+03 5.975768e+02
      vertex 3.283071e+03 1.206991e+03 5.989619e+02
    endloop
  endfacet
endsolid Object01
