{"asset":{"version":"2.0","generator":"babylon.js glTF exporter for 3dsmax 2022 v20251022.3"},"scene":0,"scenes":[{"nodes":[0]}],"nodes":[{"children":[1],"rotation":[-0.5,-0.5,0.5,-0.5],"name":"A85.ENTORNO TREN Y ESTRUCTURAS 30 JULIO"},{"children":[2],"rotation":[2.18556941E-08,-4.776714E-16,-2.18556941E-08,1.0],"name":"A85.ENTORNO TREN Y ESTRUCTURAS 30 JULIO (1)"},{"children":[3],"translation":[-4.2759223,9.094947E-15,1.33781707],"name":"A85.SUELO LAVADO DE BAJOS_Predeterminado<Como mecanizada>_1"},{"mesh":0,"translation":[11.2176685,8.0,-1.53212571],"name":"Cortar-Extruir009"}],"meshes":[{"primitives":[{"attributes":{"POSITION":1,"NORMAL":2,"TEXCOORD_0":3},"indices":0,"material":0}],"name":"Cortar-Extruir009"}],"accessors":[{"bufferView":0,"componentType":5123,"count":3012,"type":"SCALAR","name":"accessorIndices"},{"bufferView":1,"componentType":5126,"count":1335,"max":[12.317461,33.0,1.09993982],"min":[-12.3174591,-33.0,-1.0999397],"type":"VEC3","name":"accessorPositions"},{"bufferView":1,"byteOffset":16020,"componentType":5126,"count":1335,"type":"VEC3","name":"accessorNormals"},{"bufferView":2,"componentType":5126,"count":1335,"type":"VEC2","name":"accessorUVs"}],"bufferViews":[{"buffer":0,"byteLength":6024,"name":"bufferViewScalar"},{"buffer":0,"byteOffset":6024,"byteLength":32040,"byteStride":12,"name":"bufferViewFloatVec3"},{"buffer":0,"byteOffset":38064,"byteLength":10680,"byteStride":8,"name":"bufferViewFloatVec2"}],"buffers":[{"uri":"SUELO_PBR_02.bin","byteLength":48744}],"materials":[{"pbrMetallicRoughness":{"baseColorTexture":{"index":0},"metallicFactor":0.0,"roughnessFactor":0.450053632},"name":"MATERIAL SUELO"}],"textures":[{"sampler":0,"source":0,"name":"pavement_01_diffuse.png"}],"images":[{"uri":"pavement_01_diffuse.png"}],"samplers":[{"magFilter":9729,"minFilter":9987}]}