{"asset":{"version":"2.0","generator":"babylon.js glTF exporter for 3dsmax 2022 v20251022.3"},"scene":0,"scenes":[{"nodes":[0]}],"nodes":[{"mesh":0,"translation":[-1.07004121E-08,0.105707109,-0.1762071],"rotation":[0.7071068,-4.21468478E-08,4.214685E-08,0.7071067],"name":"Cylinder001"}],"meshes":[{"primitives":[{"attributes":{"POSITION":1,"NORMAL":2,"TEXCOORD_0":3},"indices":0,"material":0}],"name":"Cylinder001"}],"accessors":[{"bufferView":0,"componentType":5123,"count":2772,"type":"SCALAR","name":"accessorIndices"},{"bufferView":1,"componentType":5126,"count":773,"max":[0.09658966,0.349575371,0.105251685],"min":[-0.0993695259,-0.005644402,-0.122388765],"type":"VEC3","name":"accessorPositions"},{"bufferView":1,"byteOffset":9276,"componentType":5126,"count":773,"type":"VEC3","name":"accessorNormals"},{"bufferView":2,"componentType":5126,"count":773,"type":"VEC2","name":"accessorUVs"}],"bufferViews":[{"buffer":0,"byteLength":5544,"name":"bufferViewScalar"},{"buffer":0,"byteOffset":5544,"byteLength":18552,"byteStride":12,"name":"bufferViewFloatVec3"},{"buffer":0,"byteOffset":24096,"byteLength":6184,"byteStride":8,"name":"bufferViewFloatVec2"}],"buffers":[{"uri":"BOMBA.bin","byteLength":30280}],"materials":[{"pbrMetallicRoughness":{"baseColorFactor":[0.933,0.774,0.374,1.0],"roughnessFactor":0.51},"doubleSided":true,"name":"Material #26","extras":{"babylonSeparateCullingPass":false}}]}